<?xml version="1.0" encoding="UTF-8"?>
<svg id="Camada_1" data-name="Camada 1" xmlns="http://www.w3.org/2000/svg" viewBox="0 0 112.98 159.06">
  <path d="M56.49,41.48c-4.37-3.31-7.19-8.56-7.19-14.46s2.82-11.15,7.19-14.46c4.37,3.31,7.19,8.56,7.19,14.46s-2.82,11.15-7.19,14.46h0Z" style="fill: #bad63d; fill-rule: evenodd;"/>
  <path d="M40.49,27.99c-4.57-.73-8.75-3.51-11.1-7.9-2.35-4.39-2.34-9.42-.41-13.62,4.57.73,8.75,3.51,11.1,7.9,2.35,4.39,2.34,9.42.41,13.62h0Z" style="fill: #339940; fill-rule: evenodd;"/>
  <path d="M72.49,27.99c4.57-.73,8.75-3.51,11.1-7.9,2.35-4.39,2.33-9.42.41-13.62-4.57.73-8.75,3.51-11.1,7.9-2.35,4.39-2.34,9.42-.41,13.62h0Z" style="fill: #bad63d; fill-rule: evenodd;"/>
  <path d="M38.32,45.76c-5.18,1.79-11.11,1.22-16.02-2.06-4.91-3.28-7.7-8.54-8.03-14.01,5.18-1.79,11.11-1.22,16.02,2.06,4.91,3.28,7.7,8.54,8.03,14.01h0Z" style="fill: #7d9e3b; fill-rule: evenodd;"/>
  <path d="M74.65,45.76c5.18,1.79,11.11,1.22,16.02-2.06,4.91-3.28,7.7-8.54,8.03-14.01-5.18-1.79-11.11-1.22-16.02,2.06-4.91,3.28-7.7,8.54-8.03,14.01h0Z" style="fill: #bad63d; fill-rule: evenodd;"/>
  <path d="M11.39,45.07c-2.03,1.17-4.56,1.41-6.89.43-2.33-.98-3.92-2.96-4.5-5.23,2.03-1.17,4.56-1.41,6.89-.43,2.33.98,3.92,2.96,4.5,5.23h0Z" style="fill: #bad63d; fill-rule: evenodd;"/>
  <path d="M101.59,45.07c2.03,1.17,4.56,1.41,6.89.43,2.32-.98,3.92-2.96,4.5-5.23-2.03-1.17-4.56-1.41-6.89-.43-2.33.98-3.92,2.96-4.5,5.23h0Z" style="fill: #339940; fill-rule: evenodd;"/>
  <path d="M18,73.04c-.03,2.34-1.12,4.64-3.15,6.14-2.03,1.5-4.55,1.86-6.8,1.2.03-2.34,1.12-4.64,3.15-6.14,2.03-1.5,4.55-1.86,6.8-1.2h0Z" style="fill: #bad63d; fill-rule: evenodd;"/>
  <path d="M94.97,73.04c.03,2.34,1.12,4.64,3.15,6.14,2.03,1.5,4.55,1.86,6.8,1.2-.03-2.34-1.12-4.64-3.15-6.14-2.03-1.5-4.55-1.86-6.8-1.2h0Z" style="fill: #bad63d; fill-rule: evenodd;"/>
  <path d="M22.12,22.66c-2.32.3-4.75-.45-6.52-2.25-1.77-1.8-2.48-4.24-2.15-6.56,2.32-.3,4.75.45,6.52,2.25,1.77,1.8,2.48,4.24,2.15,6.56h0Z" style="fill: #bad63d; fill-rule: evenodd;"/>
  <path d="M45.89,10.59c-1.76-1-3.04-2.79-3.32-4.95-.28-2.16.5-4.22,1.94-5.64,1.76,1.01,3.04,2.79,3.32,4.95.28,2.16-.5,4.22-1.94,5.64h0Z" style="fill: #bad63d; fill-rule: evenodd;"/>
  <path d="M67.08,10.59c1.76-1,3.04-2.79,3.32-4.95.28-2.16-.5-4.22-1.94-5.64-1.76,1.01-3.04,2.79-3.32,4.95-.28,2.16.5,4.22,1.94,5.64h0Z" style="fill: #339940; fill-rule: evenodd;"/>
  <path d="M90.86,22.66c2.32.3,4.75-.45,6.52-2.25,1.77-1.8,2.48-4.24,2.15-6.56-2.32-.3-4.75.45-6.52,2.25-1.77,1.8-2.48,4.24-2.15,6.56h0Z" style="fill: #7d9e3b; fill-rule: evenodd;"/>
  <path d="M35.78,58.16c-3.2,4.45-8.37,7.41-14.27,7.56-5.9.15-11.22-2.53-14.64-6.81,3.2-4.45,8.37-7.41,14.27-7.56,5.9-.15,11.22,2.53,14.64,6.81h0Z" style="fill: #339940; fill-rule: evenodd;"/>
  <path d="M77.19,58.16c3.2,4.45,8.37,7.41,14.27,7.56,5.9.15,11.22-2.53,14.64-6.81-3.2-4.45-8.37-7.41-14.27-7.56-5.9-.15-11.22,2.53-14.64,6.81h0Z" style="fill: #7d9e3b; fill-rule: evenodd;"/>
  <path d="M44.59,70.73c-.49,5.46-3.43,10.63-8.43,13.77-5,3.14-10.94,3.54-16.07,1.6.49-5.46,3.43-10.63,8.43-13.77,5-3.14,10.94-3.54,16.07-1.6h0Z" style="fill: #bad63d; fill-rule: evenodd;"/>
  <path d="M68.38,70.73c.49,5.46,3.43,10.63,8.43,13.77,5,3.14,10.94,3.54,16.07,1.6-.49-5.46-3.43-10.63-8.43-13.77-5-3.14-10.94-3.54-16.07-1.6h0Z" style="fill: #339940; fill-rule: evenodd;"/>
  <g>
    <path d="M55.9,157.39s-1.07-.78-6.13-4.15c-6.2-4.13-9.61-9.42-9.61-14.9v-24.14h13.09v-45.83c-8.99-4.46-8.4-17.75-8.37-18.33l.12-3.1h22.97l.13,3.11c.03.57.56,13.88-8.38,18.32,0,0,0,43.06,0,54.42l1.99-8.59h11.11v24.14c0,5.48-3.41,10.77-9.61,14.9-5.06,3.37-6.12,4.14-6.13,4.15l-.59.43-.59-.43ZM51.45,53.43c.33,3.22,1.45,7.79,5.04,9.32,3.6-1.53,4.71-6.1,5.04-9.32h-10.09Z" style="fill: #003321; fill-rule: evenodd;"/>
    <path d="M67.01,47.96l.09,2.15s.76,13.7-8.38,17.64c0,21.99,0,41.84,0,63.83l3.78-16.36h9.31v23.14c0,5.72-3.99,10.62-9.17,14.07-5.17,3.45-6.16,4.17-6.16,4.17,0,0-.99-.73-6.16-4.17-5.17-3.45-9.17-8.35-9.17-14.07v-23.14h13.09v-47.46c-9.13-3.94-8.38-17.6-8.38-17.64l.09-2.15h21.05M56.49,63.83c4.89-1.75,5.93-8.04,6.13-11.4h-12.25c.2,3.36,1.24,9.65,6.13,11.4M68.93,45.96h-24.89l-.08,1.92-.09,2.15c-.03.57-.62,13.96,8.37,18.96v44.22h-13.09v25.14c0,5.82,3.57,11.41,10.06,15.73,5.01,3.34,6.05,4.09,6.09,4.12l1.18.86,1.18-.86s1.08-.78,6.09-4.12c6.48-4.32,10.06-9.91,10.06-15.73v-25.14h-12.9l-.19.82c0-8.27,0-16.39,0-24.62v-20.43c3.66-2.04,6.24-5.78,7.52-10.9,1.01-4.05.87-7.67.86-8.06h0s-.09-2.14-.09-2.14l-.08-1.92h0ZM52.59,54.43h7.8c-.4,2.53-1.4,5.87-3.9,7.21-2.5-1.35-3.5-4.68-3.9-7.21h0Z" style="fill: #fff;"/>
  </g>
</svg>